<svg xmlns="http://www.w3.org/2000/svg" width="136" height="41" viewBox="0 0 136 41">
    <g fill="none" fill-rule="nonzero">
        <g fill="#000">
            <path d="M.156 7.237h19.308v2.682H3.213v9.233h14.536v2.652H3.213v11.26H.156zM36.839 7.237h11.54c3.307 0 5.959.967 7.643 2.589 1.31 1.247 2.059 3.057 2.059 5.084v.062c0 4.274-3.057 6.8-7.3 7.518l8.236 10.543h-3.712l-7.799-10.044h-7.673v10.075h-3.026V7.237h.032zM48.13 20.4c4.024 0 6.894-1.996 6.894-5.303v-.062c0-3.182-2.527-5.085-6.863-5.085h-8.297v10.481h8.266V20.4zM76.079 7.237H95.48v2.651H79.105v8.828h14.66v2.651h-14.66v9.046h16.563v2.651h-19.59V7.237zM121.714 22.833L110.547 7.237h3.68l9.046 12.913 9.14-12.913h3.525L124.77 22.802v10.262h-3.057z"/>
        </g>
        <path fill="#B22024" d="M0 0h95.73v1.154H0zM36.495 39.084h94.826v1.154H36.495z"/>
    </g>
</svg>
